<svg xmlns="http://www.w3.org/2000/svg" version="1.1" xmlns:xlink="http://www.w3.org/1999/xlink" xmlns:svgjs="http://svgjs.dev/svgjs" width="1000" height="1000" viewBox="0 0 1000 1000"><rect width="1000" height="1000" fill="#ffffff"></rect><g transform="matrix(0.7,0,0,0.7,149.57575757575756,450.5174995871181)"><svg viewBox="0 0 396 56" data-background-color="#ffffff" preserveAspectRatio="xMidYMid meet" height="141" width="1000" xmlns="http://www.w3.org/2000/svg" xmlns:xlink="http://www.w3.org/1999/xlink"><g id="tight-bounds" transform="matrix(1,0,0,1,0.2400000000000091,0.07517753922377324)"><svg viewBox="0 0 395.52 55.84964492155243" height="55.84964492155243" width="395.52"><g><svg viewBox="0 0 395.52 55.84964492155243" height="55.84964492155243" width="395.52"><g><svg viewBox="0 0 395.52 55.84964492155243" height="55.84964492155243" width="395.52"><g><svg viewBox="0 0 395.52 55.84964492155243" height="55.84964492155243" width="395.52"><g><svg viewBox="0 0 395.52 55.84964492155243" height="55.84964492155243" width="395.52"><g transform="matrix(1,0,0,1,0,0)"><svg width="395.52" viewBox="2.4999999999999956 -38.25 302.75 39.75" height="55.84964492155243" data-palette-color="#ff3c00"><svg></svg><g class="undefined-text-0" data-fill-palette-color="primary" id="text-0"><path d="M2.5-18.35v0c0-2.533 0.483-4.933 1.45-7.2 0.967-2.267 2.31-4.277 4.03-6.03 1.713-1.747 3.703-3.12 5.97-4.12 2.267-1 4.7-1.5 7.3-1.5v0c2.567 0 4.983 0.5 7.25 1.5 2.267 1 4.273 2.373 6.02 4.12 1.753 1.753 3.123 3.763 4.11 6.03 0.98 2.267 1.47 4.667 1.47 7.2v0c0 2.6-0.49 5.033-1.47 7.3-0.987 2.267-2.357 4.257-4.11 5.97-1.747 1.72-3.753 3.063-6.02 4.03-2.267 0.967-4.683 1.45-7.25 1.45v0c-2.6 0-5.033-0.483-7.3-1.45-2.267-0.967-4.257-2.31-5.97-4.03-1.72-1.713-3.063-3.703-4.03-5.97-0.967-2.267-1.45-4.7-1.45-7.3zM10-18.35v0c0 1.633 0.293 3.157 0.88 4.57 0.58 1.42 1.397 2.67 2.45 3.75 1.047 1.087 2.263 1.93 3.65 2.53 1.38 0.6 2.887 0.9 4.52 0.9v0c1.567 0 3.027-0.3 4.38-0.9 1.347-0.6 2.52-1.443 3.52-2.53 1-1.08 1.783-2.33 2.35-3.75 0.567-1.413 0.85-2.937 0.85-4.57v0c0-1.667-0.29-3.217-0.87-4.65-0.587-1.433-1.387-2.693-2.4-3.78-1.02-1.08-2.213-1.92-3.58-2.52-1.367-0.6-2.85-0.9-4.45-0.9v0c-1.6 0-3.083 0.3-4.45 0.9-1.367 0.6-2.567 1.44-3.6 2.52-1.033 1.087-1.833 2.347-2.4 3.78-0.567 1.433-0.85 2.983-0.85 4.65zM47.35-36.8h11.15c3.033 0 5.6 0.51 7.7 1.53 2.1 1.013 3.7 2.443 4.8 4.29 1.1 1.853 1.65 4.047 1.65 6.58v0c0 1.5-0.227 3.007-0.68 4.52-0.447 1.52-1.16 2.897-2.14 4.13-0.987 1.233-2.303 2.223-3.95 2.97-1.653 0.753-3.68 1.13-6.08 1.13v0h-5.2v11.65h-7.25zM54.6-18.7h5.15c1.1 0 2.017-0.193 2.75-0.58 0.733-0.38 1.307-0.863 1.72-1.45 0.42-0.58 0.723-1.187 0.91-1.82 0.18-0.633 0.27-1.183 0.27-1.65v0c0-0.367-0.06-0.86-0.18-1.48-0.113-0.613-0.353-1.237-0.72-1.87-0.367-0.633-0.923-1.167-1.67-1.6-0.753-0.433-1.763-0.65-3.03-0.65v0h-5.2zM79.15 0v-36.8h25.1v7h-17.85v7.85h15.8v7h-15.8v7.95h18.55v7zM145.6 1.5h-0.2l-27.9-25.2 2.15 1.2 0.15 22.5h-7.35v-38.25h0.3l27.3 25.1-1.6-0.7-0.15-22.95h7.3zM177.5-33.45l-2.75 5.55c-1.4-0.767-2.823-1.4-4.27-1.9-1.453-0.5-2.813-0.75-4.08-0.75v0c-1.567 0-2.8 0.317-3.7 0.95-0.9 0.633-1.35 1.583-1.35 2.85v0c0 0.867 0.343 1.64 1.03 2.32 0.68 0.687 1.563 1.297 2.65 1.83 1.08 0.533 2.203 1.017 3.37 1.45v0c1.067 0.4 2.127 0.873 3.18 1.42 1.047 0.553 1.987 1.237 2.82 2.05 0.833 0.82 1.5 1.837 2 3.05 0.5 1.22 0.75 2.713 0.75 4.48v0c0 1.867-0.483 3.6-1.45 5.2-0.967 1.6-2.383 2.893-4.25 3.88-1.867 0.98-4.167 1.47-6.9 1.47v0c-1.4 0-2.823-0.143-4.27-0.43-1.453-0.28-2.88-0.713-4.28-1.3-1.4-0.58-2.75-1.32-4.05-2.22v0l3.2-5.65c0.867 0.633 1.81 1.19 2.83 1.67 1.013 0.487 2.037 0.863 3.07 1.13 1.033 0.267 1.983 0.4 2.85 0.4v0c0.867 0 1.743-0.127 2.63-0.38 0.88-0.247 1.613-0.67 2.2-1.27 0.58-0.6 0.87-1.433 0.87-2.5v0c0-0.733-0.24-1.4-0.72-2-0.487-0.6-1.137-1.15-1.95-1.65-0.82-0.5-1.713-0.933-2.68-1.3v0c-1.133-0.433-2.3-0.933-3.5-1.5-1.2-0.567-2.323-1.26-3.37-2.08-1.053-0.813-1.903-1.83-2.55-3.05-0.653-1.213-0.98-2.703-0.98-4.47v0c0-2.133 0.477-3.983 1.43-5.55 0.947-1.567 2.287-2.81 4.02-3.73 1.733-0.913 3.733-1.42 6-1.52v0c2.967 0 5.377 0.35 7.23 1.05 1.847 0.7 3.503 1.533 4.97 2.5zM184.25-36.8h11.15c3.033 0 5.6 0.51 7.7 1.53 2.1 1.013 3.7 2.443 4.8 4.29 1.1 1.853 1.65 4.047 1.65 6.58v0c0 1.5-0.223 3.007-0.67 4.52-0.453 1.52-1.17 2.897-2.15 4.13-0.987 1.233-2.303 2.223-3.95 2.97-1.653 0.753-3.68 1.13-6.08 1.13v0h-5.2v11.65h-7.25zM191.5-18.7h5.15c1.1 0 2.017-0.193 2.75-0.58 0.733-0.38 1.31-0.863 1.73-1.45 0.413-0.58 0.713-1.187 0.9-1.82 0.18-0.633 0.27-1.183 0.27-1.65v0c0-0.367-0.057-0.86-0.17-1.48-0.12-0.613-0.363-1.237-0.73-1.87-0.367-0.633-0.923-1.167-1.67-1.6-0.753-0.433-1.763-0.65-3.03-0.65v0h-5.2zM215.3 0h-7.15l16.6-38.25h0.4l16.6 38.25h-8.4l-10.6-26.9 5.25-3.6zM217.25-7.2l2.25-6.1h11.05l2.55 6.1zM269.2-9.55l3 6.5c-0.4 0.333-1.14 0.783-2.22 1.35-1.087 0.567-2.413 1.067-3.98 1.5-1.567 0.433-3.3 0.633-5.2 0.6v0c-2.9-0.067-5.49-0.593-7.77-1.58-2.287-0.98-4.22-2.32-5.8-4.02-1.587-1.7-2.797-3.65-3.63-5.85-0.833-2.2-1.25-4.55-1.25-7.05v0c0-2.8 0.427-5.367 1.28-7.7 0.847-2.333 2.063-4.35 3.65-6.05 1.58-1.7 3.47-3.017 5.67-3.95 2.2-0.933 4.633-1.4 7.3-1.4v0c2.467 0 4.65 0.333 6.55 1 1.9 0.667 3.45 1.383 4.65 2.15v0l-2.85 6.85c-0.833-0.633-1.94-1.293-3.32-1.98-1.387-0.68-2.98-1.02-4.78-1.02v0c-1.4 0-2.74 0.29-4.02 0.87-1.287 0.587-2.42 1.413-3.4 2.48-0.987 1.067-1.763 2.307-2.33 3.72-0.567 1.42-0.85 2.963-0.85 4.63v0c0 1.767 0.26 3.383 0.78 4.85 0.513 1.467 1.253 2.723 2.22 3.77 0.967 1.053 2.127 1.863 3.48 2.43 1.347 0.567 2.87 0.85 4.57 0.85v0c1.967 0 3.65-0.317 5.05-0.95 1.4-0.633 2.467-1.3 3.2-2zM279.45 0v-36.8h25.1v7h-17.85v7.85h15.8v7h-15.8v7.95h18.55v7z" fill="#ff3c00" fill-rule="nonzero" stroke="none" stroke-width="1" stroke-linecap="butt" stroke-linejoin="miter" stroke-miterlimit="10" stroke-dasharray="" stroke-dashoffset="0" font-family="none" font-weight="none" font-size="none" text-anchor="none" style="mix-blend-mode: normal" data-fill-palette-color="primary" opacity="1"></path></g></svg></g></svg></g></svg></g></svg></g><g></g></svg></g><defs></defs></svg><rect width="395.52" height="55.84964492155243" fill="none" stroke="none" visibility="hidden"></rect></g></svg></g></svg>